<svg width="193.00000000000003" height="19" xmlns="http://www.w3.org/2000/svg" fill="none">
 <title>flight-brand-text</title>

 <g>
  <title>Layer 1</title>
  <path id="svg_4" fill="white" d="m6.41085,2.96973l-5.43249,0c-0.43364,0 -0.64877,0.24261 -0.64877,0.72669l0,11.41688c0,0.3854 0.32495,0.5793 0.97373,0.5793l0.55479,0c0.65104,0 0.97486,-0.1939 0.97486,-0.5793l0,-4.749l3.46352,0c0.32609,0 0.488,-0.3018 0.488,-0.90545l0,-0.56301c0,-0.60364 -0.16191,-0.90546 -0.488,-0.90546l-3.46352,0l0,-2.64672l3.57788,0c0.32608,0 0.48799,-0.30066 0.48799,-0.90546l0,-0.56185c0,-0.60364 -0.16191,-0.90662 -0.48799,-0.90662z" clip-rule="evenodd" fill-rule="evenodd"/>
  <path id="svg_5" fill="white" d="m21.4693,13.2825l-3.6254,0l0,-9.76732c0,-0.38773 -0.325,-0.58159 -0.976,-0.58159l-0.5548,0c-0.6488,0 -0.9737,0.19386 -0.9737,0.58159l0,11.41692c0,0.4829 0.2151,0.7244 0.6499,0.7244l5.48,0c0.325,0 0.488,-0.303 0.488,-0.9055l0,-0.563c0,-0.6025 -0.163,-0.9055 -0.488,-0.9055z" clip-rule="evenodd" fill-rule="evenodd"/>
  <path id="svg_6" fill="white" d="m31.4848,2.91602l-0.5684,0c-0.6499,0 -0.976,0.1985 -0.976,0.59899l0,11.59799c0,0.3982 0.3261,0.5967 0.976,0.5967l0.5684,0c0.651,0 0.976,-0.1985 0.976,-0.5967l0,-11.59799c0,-0.40049 -0.325,-0.59899 -0.976,-0.59899z" clip-rule="evenodd" fill-rule="evenodd"/>
  <path id="svg_7" fill="white" d="m49.5533,8.60602l-3.3004,0c-0.3261,0 -0.4892,0.30298 -0.4892,0.90546l0,0.58162c0,0.6036 0.1631,0.9066 0.4892,0.9066l1.4311,0l0,2.3008c-0.4133,0.0836 -0.8367,0.1265 -1.2681,0.1265c-1.8546,0 -2.7819,-1.3675 -2.7819,-4.10474c0,-2.73727 0.9375,-4.10475 2.8136,-4.10475c0.8141,0 1.5183,0.14511 2.1139,0.43532c0.2061,0.09519 0.325,0.14511 0.3567,0.14511c0.1958,0 0.4211,-0.21824 0.6759,-0.6524c0.2536,-0.43532 0.3827,-0.78589 0.3827,-1.05172c0,-0.34942 -0.3827,-0.65008 -1.1481,-0.89734c-0.7631,-0.2461 -1.5421,-0.37031 -2.3324,-0.37031c-3.6198,0 -5.4314,2.14989 -5.4314,6.44966c0,2.23577 0.436,3.88307 1.3089,4.94057c0.873,1.0564 2.2192,1.5845 4.0421,1.5845c0.7575,0 1.5274,-0.0847 2.3086,-0.2542c0.4326,-0.0836 0.7881,-0.2298 1.0655,-0.4341c0.2751,-0.2043 0.4132,-0.4528 0.4132,-0.743l0,-5.03921c0,-0.48175 -0.2162,-0.72437 -0.6499,-0.72437z" clip-rule="evenodd" fill-rule="evenodd"/>
  <path id="svg_8" fill="white" d="m67.9121,2.93262l-0.5684,0c-0.6499,0 -0.976,0.19386 -0.976,0.58158l0,4.47506l-4.3908,0l0,-4.47506c0,-0.38772 -0.3238,-0.58158 -0.976,-0.58158l-0.5684,0c-0.6499,0 -0.976,0.19386 -0.976,0.58158l0,11.598c0,0.3854 0.3261,0.5793 0.976,0.5793l0.5684,0c0.6522,0 0.976,-0.1939 0.976,-0.5793l0,-4.7304l4.3908,0l0,4.7304c0,0.3854 0.3261,0.5793 0.976,0.5793l0.5684,0c0.651,0 0.976,-0.1939 0.976,-0.5793l0,-11.598c0,-0.38772 -0.325,-0.58158 -0.976,-0.58158z" clip-rule="evenodd" fill-rule="evenodd"/>
  <path id="svg_9" fill="white" d="m85.1502,2.96973l-7.6913,0c-0.3261,0 -0.4892,0.30298 -0.4892,0.90662l0,0.56185c0,0.6048 0.1631,0.90546 0.4892,0.90546l2.586,0l0,9.76964c0,0.3854 0.3249,0.5793 0.9748,0.5793l0.5696,0c0.651,0 0.9748,-0.1939 0.9748,-0.5793l0,-9.76964l2.5861,0c0.326,0 0.4891,-0.30066 0.4891,-0.90546l0,-0.56185c0,-0.60364 -0.1631,-0.90662 -0.4891,-0.90662z" clip-rule="evenodd" fill-rule="evenodd"/>
  <path id="svg_10" fill="white" d="m109.592,2.93262l-0.129,0c-0.435,0 -0.651,0.13349 -0.651,0.39933l0,5.12861l-5.888,0l0,-5.12861c0,-0.26584 -0.217,-0.39933 -0.65,-0.39933l-0.13,0c-0.434,0 -0.65,0.13349 -0.65,0.39933l0,11.96015c0,0.267 0.216,0.3994 0.65,0.3994l0.13,0c0.433,0 0.65,-0.1324 0.65,-0.3994l0,-5.45477l5.888,0l0,5.45477c0,0.267 0.216,0.3994 0.651,0.3994l0.129,0c0.434,0 0.65,-0.1324 0.65,-0.3994l0,-11.96015c0,-0.26584 -0.216,-0.39933 -0.65,-0.39933z" clip-rule="evenodd" fill-rule="evenodd"/>
  <path id="svg_11" fill="white" d="m126.423,14.2787l-4.749,0l0,-4.42168l4.245,0c0.216,0 0.325,-0.18109 0.325,-0.54327l0,-0.29021c0,-0.36335 -0.109,-0.54328 -0.325,-0.54328l-4.245,0l0,-4.13377l4.732,0c0.217,0 0.326,-0.18109 0.326,-0.54212l0,-0.28905c0,-0.3645 -0.109,-0.54559 -0.326,-0.54559l-5.675,0c-0.325,0 -0.488,0.18109 -0.488,0.54559l0,11.59798c0,0.3611 0.163,0.5433 0.488,0.5433l5.692,0c0.216,0 0.325,-0.1822 0.325,-0.5433l0,-0.2913c0,-0.3622 -0.109,-0.5433 -0.325,-0.5433z" clip-rule="evenodd" fill-rule="evenodd"/>
  <path id="svg_12" fill="white" d="m137.382,11.0537l1.708,-5.40021l0.261,-1.05173l0.211,1.05173l1.708,5.40021l-3.888,0zm2.863,-7.82873c-0.055,-0.19387 -0.271,-0.29138 -0.651,-0.29138l-0.47,0c-0.381,0 -0.596,0.09751 -0.651,0.29138l-3.853,11.90563c-0.034,0.108 -0.05,0.1939 -0.05,0.2531c0,0.2054 0.234,0.3087 0.698,0.3087l0.082,0c0.38,0 0.597,-0.0963 0.651,-0.289l0.927,-2.9718l4.779,0l0.962,2.9718c0.054,0.1927 0.269,0.289 0.649,0.289l0.131,0c0.466,0 0.7,-0.1033 0.7,-0.3087c0,-0.0708 -0.017,-0.1498 -0.049,-0.2357l-3.855,-11.92303z" clip-rule="evenodd" fill-rule="evenodd"/>
  <path id="svg_13" fill="white" d="m158.654,14.2785l-4.471,0l0,-10.94674c0,-0.26467 -0.219,-0.39817 -0.65,-0.39817l-0.13,0c-0.434,0 -0.652,0.1335 -0.652,0.39817l0,11.78144c0,0.361 0.164,0.5433 0.488,0.5433l5.415,0c0.217,0 0.325,-0.1823 0.325,-0.5433l0,-0.2914c0,-0.3622 -0.108,-0.5433 -0.325,-0.5433z" clip-rule="evenodd" fill-rule="evenodd"/>
  <path id="svg_14" fill="white" d="m174.15,2.96973l-7.625,0c-0.218,0 -0.326,0.18109 -0.326,0.54559l0,0.28905c0,0.36103 0.108,0.54328 0.326,0.54328l3.121,0l0,10.94565c0,0.267 0.217,0.3993 0.651,0.3993l0.13,0c0.434,0 0.651,-0.1323 0.651,-0.3993l0,-10.94565l3.072,0c0.217,0 0.327,-0.18225 0.327,-0.54328l0,-0.28905c0,-0.3645 -0.11,-0.54559 -0.327,-0.54559z" clip-rule="evenodd" fill-rule="evenodd"/>
  <path id="svg_15" fill="white" d="m191.308,2.93262l-0.13,0c-0.433,0 -0.65,0.13349 -0.65,0.39933l0,5.12861l-5.889,0l0,-5.12861c0,-0.26584 -0.216,-0.39933 -0.648,-0.39933l-0.13,0c-0.434,0 -0.652,0.13349 -0.652,0.39933l0,11.96015c0,0.267 0.218,0.3994 0.652,0.3994l0.13,0c0.432,0 0.648,-0.1324 0.648,-0.3994l0,-5.45477l5.889,0l0,5.45477c0,0.267 0.217,0.3994 0.65,0.3994l0.13,0c0.433,0 0.649,-0.1324 0.649,-0.3994l0,-11.96015c0,-0.26584 -0.216,-0.39933 -0.649,-0.39933z" clip-rule="evenodd" fill-rule="evenodd"/>
 </g>
</svg>