<svg width="113" height="112" viewBox="0 0 113 112" fill="none" xmlns="http://www.w3.org/2000/svg">
<rect x="0.975586" y="0.0546875" width="111.401" height="111.401" rx="8" fill="white" fill-opacity="0.1"/>
<path fill-rule="evenodd" clip-rule="evenodd" d="M79.8263 36.0211V35.9111L42.0581 35.9381C40.1574 36.1041 37.3306 36.7177 35.0266 40.0868C34.0329 41.6054 33.5254 43.1356 33.5254 47.2784V77.0542H41.1473C43.3644 77.0542 45.1667 75.25 45.1667 73.0367V72.564H38.1101V47.2784C38.1101 45.0285 38.3996 43.4231 38.9727 42.5027C39.7387 41.287 40.9833 40.5731 42.6794 40.3859L75.4847 40.3627C77.8774 40.3627 79.8263 38.4138 79.8263 36.0211ZM62.3573 52.6055C64.5725 52.6055 66.3786 50.8033 66.3786 48.5881V48.1153H46.2162V52.6055H62.3573ZM55.6697 60.7311C55.6697 62.9463 53.8655 64.7524 51.6522 64.7524H46.2185V60.2622H55.6697V60.7311Z" fill="white"/>
</svg>
