<svg width="229" height="19" viewBox="0 0 229 19" fill="none" xmlns="http://www.w3.org/2000/svg">
<path fill-rule="evenodd" clip-rule="evenodd" d="M220.404 7.53679C221.379 7.53679 222.173 6.72303 222.173 5.72238V5.50879H213.297V7.53679H220.404Z" fill="white"/>
<path fill-rule="evenodd" clip-rule="evenodd" d="M215.69 13.0202C216.664 13.0202 217.458 12.2053 217.458 11.2046V10.9922H213.298V13.0202H215.69Z" fill="white"/>
<path fill-rule="evenodd" clip-rule="evenodd" d="M228.095 0.0487555V0L211.464 0.0116085C210.628 0.0859026 209.383 0.363345 208.369 1.88521C207.931 2.57011 207.708 3.26082 207.708 5.13094V18.5735H211.064C212.04 18.5735 212.833 17.7598 212.833 16.7603V16.5467H209.725V5.13094C209.725 4.1152 209.854 3.39083 210.106 2.97525C210.442 2.42617 210.992 2.10461 211.738 2.01871L226.184 2.00826C227.236 2.00826 228.095 1.1295 228.095 0.0487555Z" fill="white"/>
<path fill-rule="evenodd" clip-rule="evenodd" d="M6.41085 2.96973H0.978363C0.544715 2.96973 0.32959 3.21234 0.32959 3.69642V15.1133C0.32959 15.4987 0.654543 15.6926 1.30332 15.6926H1.85811C2.50915 15.6926 2.83297 15.4987 2.83297 15.1133V10.3643H6.29649C6.62258 10.3643 6.78449 10.0625 6.78449 9.45885V8.89584C6.78449 8.2922 6.62258 7.99038 6.29649 7.99038H2.83297V5.34366H6.41085C6.73693 5.34366 6.89884 5.043 6.89884 4.4382V3.87635C6.89884 3.27271 6.73693 2.96973 6.41085 2.96973Z" fill="white"/>
<path fill-rule="evenodd" clip-rule="evenodd" d="M21.4693 13.2825H17.8439V3.51518C17.8439 3.12745 17.5189 2.93359 16.8679 2.93359H16.3131C15.6643 2.93359 15.3394 3.12745 15.3394 3.51518V14.9321C15.3394 15.415 15.5545 15.6565 15.9893 15.6565H21.4693C21.7943 15.6565 21.9573 15.3535 21.9573 14.751V14.188C21.9573 13.5855 21.7943 13.2825 21.4693 13.2825Z" fill="white"/>
<path fill-rule="evenodd" clip-rule="evenodd" d="M31.4848 2.91602H30.9164C30.2665 2.91602 29.9404 3.11452 29.9404 3.51501V15.113C29.9404 15.5112 30.2665 15.7097 30.9164 15.7097H31.4848C32.1358 15.7097 32.4608 15.5112 32.4608 15.113V3.51501C32.4608 3.11452 32.1358 2.91602 31.4848 2.91602Z" fill="white"/>
<path fill-rule="evenodd" clip-rule="evenodd" d="M49.5533 8.60602H46.2529C45.9268 8.60602 45.7637 8.909 45.7637 9.51148V10.0931C45.7637 10.6967 45.9268 10.9997 46.2529 10.9997H47.684V13.3005C47.2707 13.3841 46.8473 13.427 46.4159 13.427C44.5613 13.427 43.634 12.0595 43.634 9.32226C43.634 6.58499 44.5715 5.21751 46.4476 5.21751C47.2617 5.21751 47.9659 5.36262 48.5615 5.65283C48.7676 5.74802 48.8865 5.79794 48.9182 5.79794C49.114 5.79794 49.3393 5.5797 49.5941 5.14554C49.8477 4.71022 49.9768 4.35965 49.9768 4.09382C49.9768 3.7444 49.5941 3.44374 48.8287 3.19648C48.0656 2.95038 47.2866 2.82617 46.4963 2.82617C42.8765 2.82617 41.0649 4.97606 41.0649 9.27583C41.0649 11.5116 41.5009 13.1589 42.3738 14.2164C43.2468 15.2728 44.593 15.8009 46.4159 15.8009C47.1734 15.8009 47.9433 15.7162 48.7245 15.5467C49.1571 15.4631 49.5126 15.3169 49.79 15.1126C50.0651 14.9083 50.2032 14.6598 50.2032 14.3696V9.33039C50.2032 8.84864 49.987 8.60602 49.5533 8.60602Z" fill="white"/>
<path fill-rule="evenodd" clip-rule="evenodd" d="M67.9121 2.93262H67.3437C66.6938 2.93262 66.3677 3.12648 66.3677 3.5142V7.98926H61.9769V3.5142C61.9769 3.12648 61.6531 2.93262 61.0009 2.93262H60.4325C59.7826 2.93262 59.4565 3.12648 59.4565 3.5142V15.1122C59.4565 15.4976 59.7826 15.6915 60.4325 15.6915H61.0009C61.6531 15.6915 61.9769 15.4976 61.9769 15.1122V10.3818H66.3677V15.1122C66.3677 15.4976 66.6938 15.6915 67.3437 15.6915H67.9121C68.5631 15.6915 68.8881 15.4976 68.8881 15.1122V3.5142C68.8881 3.12648 68.5631 2.93262 67.9121 2.93262Z" fill="white"/>
<path fill-rule="evenodd" clip-rule="evenodd" d="M85.1502 2.96973H77.4589C77.1328 2.96973 76.9697 3.27271 76.9697 3.87635V4.4382C76.9697 5.043 77.1328 5.34366 77.4589 5.34366H80.0449V15.1133C80.0449 15.4987 80.3698 15.6926 81.0197 15.6926H81.5893C82.2403 15.6926 82.5641 15.4987 82.5641 15.1133V5.34366H85.1502C85.4762 5.34366 85.6393 5.043 85.6393 4.4382V3.87635C85.6393 3.27271 85.4762 2.96973 85.1502 2.96973Z" fill="white"/>
<path fill-rule="evenodd" clip-rule="evenodd" d="M109.592 2.93262H109.463C109.028 2.93262 108.812 3.06611 108.812 3.33195V8.46056H102.924V3.33195C102.924 3.06611 102.707 2.93262 102.274 2.93262H102.144C101.71 2.93262 101.494 3.06611 101.494 3.33195V15.2921C101.494 15.5591 101.71 15.6915 102.144 15.6915H102.274C102.707 15.6915 102.924 15.5591 102.924 15.2921V9.83733H108.812V15.2921C108.812 15.5591 109.028 15.6915 109.463 15.6915H109.592C110.026 15.6915 110.242 15.5591 110.242 15.2921V3.33195C110.242 3.06611 110.026 2.93262 109.592 2.93262Z" fill="white"/>
<path fill-rule="evenodd" clip-rule="evenodd" d="M126.423 14.2787H121.674V9.85702H125.919C126.135 9.85702 126.244 9.67593 126.244 9.31375V9.02354C126.244 8.66019 126.135 8.48026 125.919 8.48026H121.674V4.34649H126.406C126.623 4.34649 126.732 4.1654 126.732 3.80437V3.51532C126.732 3.15082 126.623 2.96973 126.406 2.96973H120.731C120.406 2.96973 120.243 3.15082 120.243 3.51532V15.1133C120.243 15.4744 120.406 15.6566 120.731 15.6566H126.423C126.639 15.6566 126.748 15.4744 126.748 15.1133V14.822C126.748 14.4598 126.639 14.2787 126.423 14.2787Z" fill="white"/>
<path fill-rule="evenodd" clip-rule="evenodd" d="M137.382 11.0537L139.09 5.65349L139.351 4.60176L139.562 5.65349L141.27 11.0537H137.382ZM140.245 3.22497C140.19 3.0311 139.974 2.93359 139.594 2.93359H139.124C138.743 2.93359 138.528 3.0311 138.473 3.22497L134.62 15.1306C134.586 15.2386 134.57 15.3245 134.57 15.3837C134.57 15.5891 134.804 15.6924 135.268 15.6924H135.35C135.73 15.6924 135.947 15.5961 136.001 15.4034L136.928 12.4316H141.707L142.669 15.4034C142.723 15.5961 142.938 15.6924 143.318 15.6924H143.449C143.915 15.6924 144.149 15.5891 144.149 15.3837C144.149 15.3129 144.132 15.2339 144.1 15.148L140.245 3.22497Z" fill="white"/>
<path fill-rule="evenodd" clip-rule="evenodd" d="M158.654 14.2785H154.183V3.33176C154.183 3.06709 153.964 2.93359 153.533 2.93359H153.403C152.969 2.93359 152.751 3.06709 152.751 3.33176V15.1132C152.751 15.4742 152.915 15.6565 153.239 15.6565H158.654C158.871 15.6565 158.979 15.4742 158.979 15.1132V14.8218C158.979 14.4596 158.871 14.2785 158.654 14.2785Z" fill="white"/>
<path fill-rule="evenodd" clip-rule="evenodd" d="M174.15 2.96973H166.525C166.307 2.96973 166.199 3.15082 166.199 3.51532V3.80437C166.199 4.1654 166.307 4.34765 166.525 4.34765H169.646V15.2933C169.646 15.5603 169.863 15.6926 170.297 15.6926H170.427C170.861 15.6926 171.078 15.5603 171.078 15.2933V4.34765H174.15C174.367 4.34765 174.477 4.1654 174.477 3.80437V3.51532C174.477 3.15082 174.367 2.96973 174.15 2.96973Z" fill="white"/>
<path fill-rule="evenodd" clip-rule="evenodd" d="M191.308 2.93262H191.178C190.745 2.93262 190.528 3.06611 190.528 3.33195V8.46056H184.639V3.33195C184.639 3.06611 184.423 2.93262 183.991 2.93262H183.861C183.427 2.93262 183.209 3.06611 183.209 3.33195V15.2921C183.209 15.5591 183.427 15.6915 183.861 15.6915H183.991C184.423 15.6915 184.639 15.5591 184.639 15.2921V9.83733H190.528V15.2921C190.528 15.5591 190.745 15.6915 191.178 15.6915H191.308C191.741 15.6915 191.957 15.5591 191.957 15.2921V3.33195C191.957 3.06611 191.741 2.93262 191.308 2.93262Z" fill="white"/>
</svg>
