<svg width="113" height="112" xmlns="http://www.w3.org/2000/svg" fill="none">

 <g>
  <title>Layer 1</title>
  <rect id="svg_1" fill="#0082de" rx="8" height="111.401" width="111.401" y="0.05469" x="0.97559"/>
  <path id="svg_2" fill="white" d="m79.8263,36.0211l0,-0.11l-37.7682,0.027c-1.9007,0.166 -4.7275,0.7796 -7.0315,4.1487c-0.9937,1.5186 -1.5012,3.0488 -1.5012,7.1916l0,29.7758l7.6219,0c2.2171,0 4.0194,-1.8042 4.0194,-4.0175l0,-0.4727l-7.0566,0l0,-25.2856c0,-2.2499 0.2895,-3.8553 0.8626,-4.7757c0.766,-1.2157 2.0106,-1.9296 3.7067,-2.1168l32.8053,-0.0232c2.3927,0 4.3416,-1.9489 4.3416,-4.3416zm-17.469,16.5844c2.2152,0 4.0213,-1.8022 4.0213,-4.0174l0,-0.4728l-20.1624,0l0,4.4902l16.1411,0zm-6.6876,8.1256c0,2.2152 -1.8042,4.0213 -4.0175,4.0213l-5.4337,0l0,-4.4902l9.4512,0l0,0.4689z" clip-rule="evenodd" fill-rule="evenodd"/>
 </g>
</svg>