<svg width="100" height="100" xmlns="http://www.w3.org/2000/svg" fill="none">
 <title>logo-blue</title>
 <g>
  <title>Layer 1</title>
  <rect id="svg_5" height="100" width="100" y="0" x="0" fill="#0082de"/>
  <path fill-rule="evenodd" clip-rule="evenodd" d="m82.65045,21.14187l0,-0.15514l-53.26673,0.03808c-2.68067,0.23412 -6.66747,1.09952 -9.91694,5.85116c-1.40147,2.14177 -2.11723,4.2999 -2.11723,10.14274l0,41.99457l10.74962,0c3.12691,0 5.6688,-2.54457 5.6688,-5.66612l0,-0.66668l-9.95234,0l0,-35.66178c0,-3.17317 0.4083,-5.43736 1.21658,-6.73545c1.08034,-1.71457 2.83567,-2.72143 5.22778,-2.98545l46.26726,-0.03272c3.37457,0 6.12322,-2.74865 6.12322,-6.12322zm-24.63756,23.38996c3.12423,0 5.67148,-2.54175 5.67148,-5.66598l0,-0.66682l-28.43623,0l0,6.33279l22.76475,0zm-9.43192,11.46001c0,3.12423 -2.54457,5.67148 -5.66612,5.67148l-7.66347,0l0,-6.33279l13.32959,0l0,0.66132z" fill="white" id="svg_2"/>
 </g>

</svg>