<svg width="173" height="38" viewBox="0 0 173 38" fill="none" xmlns="http://www.w3.org/2000/svg">
<path d="M53.6731 3.6C54.7451 3.6 55.5851 3.856 56.1931 4.368C56.8011 4.88 57.1051 5.584 57.1051 6.48C57.1051 7.376 56.8011 8.08 56.1931 8.592C55.5851 9.096 54.7451 9.348 53.6731 9.348H51.4171V12H50.5291V3.6H53.6731ZM53.6491 8.568C54.4811 8.568 55.1171 8.388 55.5571 8.028C55.9971 7.66 56.2171 7.144 56.2171 6.48C56.2171 5.8 55.9971 5.28 55.5571 4.92C55.1171 4.552 54.4811 4.368 53.6491 4.368H51.4171V8.568H53.6491ZM61.7901 12.06C61.1821 12.06 60.6341 11.924 60.1461 11.652C59.6581 11.372 59.2741 10.988 58.9941 10.5C58.7141 10.012 58.5741 9.46 58.5741 8.844C58.5741 8.228 58.7141 7.676 58.9941 7.188C59.2741 6.7 59.6581 6.32 60.1461 6.048C60.6341 5.776 61.1821 5.64 61.7901 5.64C62.3981 5.64 62.9461 5.776 63.4341 6.048C63.9221 6.32 64.3021 6.7 64.5741 7.188C64.8541 7.676 64.9941 8.228 64.9941 8.844C64.9941 9.46 64.8541 10.012 64.5741 10.5C64.3021 10.988 63.9221 11.372 63.4341 11.652C62.9461 11.924 62.3981 12.06 61.7901 12.06ZM61.7901 11.304C62.2381 11.304 62.6381 11.204 62.9901 11.004C63.3501 10.796 63.6301 10.504 63.8301 10.128C64.0301 9.752 64.1301 9.324 64.1301 8.844C64.1301 8.364 64.0301 7.936 63.8301 7.56C63.6301 7.184 63.3501 6.896 62.9901 6.696C62.6381 6.488 62.2381 6.384 61.7901 6.384C61.3421 6.384 60.9381 6.488 60.5781 6.696C60.2261 6.896 59.9461 7.184 59.7381 7.56C59.5381 7.936 59.4381 8.364 59.4381 8.844C59.4381 9.324 59.5381 9.752 59.7381 10.128C59.9461 10.504 60.2261 10.796 60.5781 11.004C60.9381 11.204 61.3421 11.304 61.7901 11.304ZM76.2217 5.688L73.8337 12H73.0297L71.0377 6.828L69.0457 12H68.2417L65.8657 5.688H66.6817L68.6617 11.052L70.6897 5.688H71.4217L73.4377 11.052L75.4417 5.688H76.2217ZM83.2248 9.108H77.9448C77.9928 9.764 78.2448 10.296 78.7008 10.704C79.1568 11.104 79.7328 11.304 80.4288 11.304C80.8208 11.304 81.1808 11.236 81.5088 11.1C81.8368 10.956 82.1208 10.748 82.3608 10.476L82.8408 11.028C82.5608 11.364 82.2088 11.62 81.7848 11.796C81.3688 11.972 80.9088 12.06 80.4048 12.06C79.7568 12.06 79.1808 11.924 78.6768 11.652C78.1808 11.372 77.7928 10.988 77.5128 10.5C77.2328 10.012 77.0928 9.46 77.0928 8.844C77.0928 8.228 77.2248 7.676 77.4888 7.188C77.7608 6.7 78.1288 6.32 78.5928 6.048C79.0648 5.776 79.5928 5.64 80.1768 5.64C80.7608 5.64 81.2848 5.776 81.7488 6.048C82.2128 6.32 82.5768 6.7 82.8408 7.188C83.1048 7.668 83.2368 8.22 83.2368 8.844L83.2248 9.108ZM80.1768 6.372C79.5688 6.372 79.0568 6.568 78.6408 6.96C78.2328 7.344 78.0008 7.848 77.9448 8.472H82.4208C82.3648 7.848 82.1288 7.344 81.7128 6.96C81.3048 6.568 80.7928 6.372 80.1768 6.372ZM86.187 6.924C86.387 6.5 86.683 6.18 87.075 5.964C87.475 5.748 87.967 5.64 88.551 5.64V6.468L88.347 6.456C87.683 6.456 87.163 6.66 86.787 7.068C86.411 7.476 86.223 8.048 86.223 8.784V12H85.371V5.688H86.187V6.924ZM95.9311 9.108H90.6511C90.6991 9.764 90.9511 10.296 91.4071 10.704C91.8631 11.104 92.4391 11.304 93.1351 11.304C93.5271 11.304 93.8871 11.236 94.2151 11.1C94.5431 10.956 94.8271 10.748 95.0671 10.476L95.5471 11.028C95.2671 11.364 94.9151 11.62 94.4911 11.796C94.0751 11.972 93.6151 12.06 93.1111 12.06C92.4631 12.06 91.8871 11.924 91.3831 11.652C90.8871 11.372 90.4991 10.988 90.2191 10.5C89.9391 10.012 89.7991 9.46 89.7991 8.844C89.7991 8.228 89.9311 7.676 90.1951 7.188C90.4671 6.7 90.8351 6.32 91.2991 6.048C91.7711 5.776 92.2991 5.64 92.8831 5.64C93.4671 5.64 93.9911 5.776 94.4551 6.048C94.9191 6.32 95.2831 6.7 95.5471 7.188C95.8111 7.668 95.9431 8.22 95.9431 8.844L95.9311 9.108ZM92.8831 6.372C92.2751 6.372 91.7631 6.568 91.3471 6.96C90.9391 7.344 90.7071 7.848 90.6511 8.472H95.1271C95.0711 7.848 94.8351 7.344 94.4191 6.96C94.0111 6.568 93.4991 6.372 92.8831 6.372ZM103.837 3.096V12H103.021V10.752C102.765 11.176 102.425 11.5 102.001 11.724C101.585 11.948 101.113 12.06 100.585 12.06C99.9933 12.06 99.4573 11.924 98.9773 11.652C98.4973 11.38 98.1213 11 97.8493 10.512C97.5773 10.024 97.4413 9.468 97.4413 8.844C97.4413 8.22 97.5773 7.664 97.8493 7.176C98.1213 6.688 98.4973 6.312 98.9773 6.048C99.4573 5.776 99.9933 5.64 100.585 5.64C101.097 5.64 101.557 5.748 101.965 5.964C102.381 6.172 102.721 6.48 102.985 6.888V3.096H103.837ZM100.657 11.304C101.097 11.304 101.493 11.204 101.845 11.004C102.205 10.796 102.485 10.504 102.685 10.128C102.893 9.752 102.997 9.324 102.997 8.844C102.997 8.364 102.893 7.936 102.685 7.56C102.485 7.184 102.205 6.896 101.845 6.696C101.493 6.488 101.097 6.384 100.657 6.384C100.209 6.384 99.8053 6.488 99.4453 6.696C99.0933 6.896 98.8133 7.184 98.6053 7.56C98.4053 7.936 98.3053 8.364 98.3053 8.844C98.3053 9.324 98.4053 9.752 98.6053 10.128C98.8133 10.504 99.0933 10.796 99.4453 11.004C99.8053 11.204 100.209 11.304 100.657 11.304ZM113.403 5.64C113.995 5.64 114.531 5.776 115.011 6.048C115.491 6.312 115.867 6.688 116.139 7.176C116.411 7.664 116.547 8.22 116.547 8.844C116.547 9.468 116.411 10.024 116.139 10.512C115.867 11 115.491 11.38 115.011 11.652C114.531 11.924 113.995 12.06 113.403 12.06C112.875 12.06 112.399 11.948 111.975 11.724C111.559 11.5 111.223 11.176 110.967 10.752V12H110.151V3.096H111.003V6.888C111.267 6.48 111.603 6.172 112.011 5.964C112.427 5.748 112.891 5.64 113.403 5.64ZM113.343 11.304C113.783 11.304 114.183 11.204 114.543 11.004C114.903 10.796 115.183 10.504 115.383 10.128C115.591 9.752 115.695 9.324 115.695 8.844C115.695 8.364 115.591 7.936 115.383 7.56C115.183 7.184 114.903 6.896 114.543 6.696C114.183 6.488 113.783 6.384 113.343 6.384C112.895 6.384 112.491 6.488 112.131 6.696C111.779 6.896 111.499 7.184 111.291 7.56C111.091 7.936 110.991 8.364 110.991 8.844C110.991 9.324 111.091 9.752 111.291 10.128C111.499 10.504 111.779 10.796 112.131 11.004C112.491 11.204 112.895 11.304 113.343 11.304ZM123.812 5.688L120.656 12.756C120.4 13.348 120.104 13.768 119.768 14.016C119.432 14.264 119.028 14.388 118.556 14.388C118.252 14.388 117.968 14.34 117.704 14.244C117.44 14.148 117.212 14.004 117.02 13.812L117.416 13.176C117.736 13.496 118.12 13.656 118.568 13.656C118.856 13.656 119.1 13.576 119.3 13.416C119.508 13.256 119.7 12.984 119.876 12.6L120.152 11.988L117.332 5.688H118.22L120.596 11.052L122.972 5.688H123.812Z" fill="#5B616A"/>
<path fill-rule="evenodd" clip-rule="evenodd" d="M166.506 29.5534C167.242 29.5534 167.843 28.9538 167.843 28.2165V28.0591H161.137V29.5534H166.506Z" fill="#323945"/>
<path fill-rule="evenodd" clip-rule="evenodd" d="M162.945 33.5934C163.68 33.5934 164.281 32.993 164.281 32.2557V32.0991H161.137V33.5934H162.945Z" fill="#323945"/>
<path fill-rule="evenodd" clip-rule="evenodd" d="M172.316 24.0359V24L159.753 24.0086C159.121 24.0633 158.18 24.2677 157.414 25.3891C157.083 25.8938 156.915 26.4027 156.915 27.7807V37.6858H159.45C160.187 37.6858 160.787 37.0862 160.787 36.3497V36.1923H158.439V27.7807C158.439 27.0323 158.536 26.4985 158.726 26.1923C158.98 25.7877 159.396 25.5508 159.96 25.4875L170.872 25.4798C171.668 25.4798 172.316 24.8323 172.316 24.0359Z" fill="#323945"/>
<path fill-rule="evenodd" clip-rule="evenodd" d="M4.84304 26.188H0.739023C0.41142 26.188 0.248901 26.3668 0.248901 26.7234V35.1359C0.248901 35.4199 0.49439 35.5627 0.984511 35.5627H1.40364C1.89547 35.5627 2.1401 35.4199 2.1401 35.1359V31.6366H4.75665C5.00299 31.6366 5.12531 31.4142 5.12531 30.9695V30.5546C5.12531 30.1098 5.00299 29.8874 4.75665 29.8874H2.1401V27.9372H4.84304C5.08938 27.9372 5.2117 27.7157 5.2117 27.27V26.856C5.2117 26.4112 5.08938 26.188 4.84304 26.188Z" fill="#323945"/>
<path fill-rule="evenodd" clip-rule="evenodd" d="M16.2192 33.7867H13.4803V26.5897C13.4803 26.304 13.2348 26.1611 12.743 26.1611H12.3239C11.8337 26.1611 11.5883 26.304 11.5883 26.5897V35.0021C11.5883 35.358 11.7508 35.5359 12.0792 35.5359H16.2192C16.4647 35.5359 16.5878 35.3126 16.5878 34.8687V34.4538C16.5878 34.0099 16.4647 33.7867 16.2192 33.7867Z" fill="#323945"/>
<path fill-rule="evenodd" clip-rule="evenodd" d="M23.7854 26.1489H23.356C22.865 26.1489 22.6187 26.2952 22.6187 26.5903V35.1362C22.6187 35.4296 22.865 35.5758 23.356 35.5758H23.7854C24.2772 35.5758 24.5227 35.4296 24.5227 35.1362V26.5903C24.5227 26.2952 24.2772 26.1489 23.7854 26.1489Z" fill="#323945"/>
<path fill-rule="evenodd" clip-rule="evenodd" d="M37.4352 30.3414H34.9418C34.6955 30.3414 34.5723 30.5646 34.5723 31.0085V31.4371C34.5723 31.8819 34.6955 32.1051 34.9418 32.1051H36.023V33.8004C35.7108 33.862 35.3909 33.8937 35.065 33.8937C33.6639 33.8937 32.9634 32.8861 32.9634 30.8691C32.9634 28.8522 33.6716 27.8446 35.089 27.8446C35.704 27.8446 36.236 27.9515 36.6859 28.1653C36.8416 28.2355 36.9314 28.2722 36.9554 28.2722C37.1033 28.2722 37.2736 28.1114 37.466 27.7915C37.6576 27.4708 37.7551 27.2125 37.7551 27.0166C37.7551 26.7591 37.466 26.5376 36.8878 26.3554C36.3113 26.174 35.7228 26.0825 35.1257 26.0825C32.3912 26.0825 31.0226 27.6666 31.0226 30.8349C31.0226 32.4823 31.3519 33.6961 32.0114 34.4753C32.6709 35.2537 33.6879 35.6429 35.065 35.6429C35.6372 35.6429 36.2189 35.5804 36.8091 35.4556C37.1358 35.394 37.4044 35.2862 37.614 35.1356C37.8218 34.9851 37.9262 34.8021 37.9262 34.5882V30.8751C37.9262 30.5201 37.7628 30.3414 37.4352 30.3414Z" fill="#323945"/>
<path fill-rule="evenodd" clip-rule="evenodd" d="M51.3047 26.1611H50.8753C50.3843 26.1611 50.138 26.304 50.138 26.5897V29.8871H46.8209V26.5897C46.8209 26.304 46.5763 26.1611 46.0836 26.1611H45.6542C45.1632 26.1611 44.9169 26.304 44.9169 26.5897V35.1356C44.9169 35.4195 45.1632 35.5624 45.6542 35.5624H46.0836C46.5763 35.5624 46.8209 35.4195 46.8209 35.1356V31.65H50.138V35.1356C50.138 35.4195 50.3843 35.5624 50.8753 35.5624H51.3047C51.7965 35.5624 52.042 35.4195 52.042 35.1356V26.5897C52.042 26.304 51.7965 26.1611 51.3047 26.1611Z" fill="#323945"/>
<path fill-rule="evenodd" clip-rule="evenodd" d="M64.3273 26.188H58.5169C58.2705 26.188 58.1473 26.4112 58.1473 26.856V27.27C58.1473 27.7157 58.2705 27.9372 58.5169 27.9372H60.4705V35.1359C60.4705 35.4199 60.716 35.5627 61.207 35.5627H61.6372C62.129 35.5627 62.3737 35.4199 62.3737 35.1359V27.9372H64.3273C64.5737 27.9372 64.6968 27.7157 64.6968 27.27V26.856C64.6968 26.4112 64.5737 26.188 64.3273 26.188Z" fill="#323945"/>
<path fill-rule="evenodd" clip-rule="evenodd" d="M82.7919 26.1611H82.6943C82.3659 26.1611 82.2025 26.2595 82.2025 26.4554V30.2344H77.7546V26.4554C77.7546 26.2595 77.5904 26.1611 77.2637 26.1611H77.1653C76.8377 26.1611 76.6743 26.2595 76.6743 26.4554V35.2682C76.6743 35.4649 76.8377 35.5624 77.1653 35.5624H77.2637C77.5904 35.5624 77.7546 35.4649 77.7546 35.2682V31.2488H82.2025V35.2682C82.2025 35.4649 82.3659 35.5624 82.6943 35.5624H82.7919C83.1195 35.5624 83.2828 35.4649 83.2828 35.2682V26.4554C83.2828 26.2595 83.1195 26.1611 82.7919 26.1611Z" fill="#323945"/>
<path fill-rule="evenodd" clip-rule="evenodd" d="M95.5071 34.5209H91.9197V31.2628H95.1264C95.2898 31.2628 95.3719 31.1294 95.3719 30.8625V30.6487C95.3719 30.381 95.2898 30.2484 95.1264 30.2484H91.9197V27.2024H95.4942C95.6585 27.2024 95.7406 27.069 95.7406 26.803V26.59C95.7406 26.3214 95.6585 26.188 95.4942 26.188H91.2072C90.9617 26.188 90.8385 26.3214 90.8385 26.59V35.1359C90.8385 35.4019 90.9617 35.5362 91.2072 35.5362H95.5071C95.6704 35.5362 95.7525 35.4019 95.7525 35.1359V34.9212C95.7525 34.6543 95.6704 34.5209 95.5071 34.5209Z" fill="#323945"/>
<path fill-rule="evenodd" clip-rule="evenodd" d="M103.787 32.1444L105.076 28.1652L105.274 27.3903L105.433 28.1652L106.724 32.1444H103.787ZM105.949 26.3758C105.908 26.233 105.744 26.1611 105.457 26.1611H105.102C104.815 26.1611 104.652 26.233 104.61 26.3758L101.7 35.1484C101.674 35.2279 101.662 35.2912 101.662 35.3349C101.662 35.4863 101.839 35.5624 102.19 35.5624H102.251C102.539 35.5624 102.702 35.4914 102.743 35.3494L103.444 33.1597H107.054L107.78 35.3494C107.821 35.4914 107.984 35.5624 108.27 35.5624H108.37C108.722 35.5624 108.898 35.4863 108.898 35.3349C108.898 35.2827 108.885 35.2245 108.861 35.1612L105.949 26.3758Z" fill="#323945"/>
<path fill-rule="evenodd" clip-rule="evenodd" d="M119.856 34.5211H116.479V26.455C116.479 26.26 116.313 26.1616 115.988 26.1616H115.889C115.562 26.1616 115.397 26.26 115.397 26.455V35.1361C115.397 35.4021 115.521 35.5364 115.766 35.5364H119.856C120.021 35.5364 120.102 35.4021 120.102 35.1361V34.9214C120.102 34.6545 120.021 34.5211 119.856 34.5211Z" fill="#323945"/>
<path fill-rule="evenodd" clip-rule="evenodd" d="M131.563 26.188H125.802C125.638 26.188 125.556 26.3214 125.556 26.59V26.803C125.556 27.069 125.638 27.2033 125.802 27.2033H128.161V35.2685C128.161 35.4652 128.324 35.5627 128.652 35.5627H128.75C129.078 35.5627 129.242 35.4652 129.242 35.2685V27.2033H131.563C131.727 27.2033 131.81 27.069 131.81 26.803V26.59C131.81 26.3214 131.727 26.188 131.563 26.188Z" fill="#323945"/>
<path fill-rule="evenodd" clip-rule="evenodd" d="M144.526 26.1611H144.427C144.1 26.1611 143.936 26.2595 143.936 26.4554V30.2344H139.488V26.4554C139.488 26.2595 139.324 26.1611 138.997 26.1611H138.899C138.571 26.1611 138.407 26.2595 138.407 26.4554V35.2682C138.407 35.4649 138.571 35.5624 138.899 35.5624H138.997C139.324 35.5624 139.488 35.4649 139.488 35.2682V31.2488H143.936V35.2682C143.936 35.4649 144.1 35.5624 144.427 35.5624H144.526C144.852 35.5624 145.016 35.4649 145.016 35.2682V26.4554C145.016 26.2595 144.852 26.1611 144.526 26.1611Z" fill="#323945"/>
</svg>
